<?xml version="1.0" encoding="utf-8"?>
<!-- Generator: Adobe Illustrator 22.1.0, SVG Export Plug-In . SVG Version: 6.00 Build 0)  -->
<svg version="1.1" id="Layer_1" xmlns="http://www.w3.org/2000/svg" xmlns:xlink="http://www.w3.org/1999/xlink" x="0px" y="0px"
	 viewBox="0 0 792 612" style="enable-background:new 0 0 792 612;" xml:space="preserve">
<style type="text/css">
	.st0{fill:#231F20;}
	.st1{fill:#231F20;stroke:#231F20;stroke-width:1.2719;stroke-miterlimit:10;}
	.st2{fill:none;stroke:#231F20;stroke-width:1.1532;stroke-miterlimit:10;}
	.st3{fill:none;stroke:#231F20;stroke-width:1.2719;stroke-miterlimit:10;}
	.st4{fill:#010101;}
	.st5{fill:none;stroke:#010101;stroke-width:0.5766;stroke-miterlimit:10;}
	.st6{fill:none;stroke:#231F20;stroke-width:0.5766;stroke-miterlimit:10;}
	.st7{fill:none;stroke:#231F20;stroke-width:1.0845;stroke-miterlimit:10;}
</style>
<g>
	<g>
		<g>
			<g>
				<g>
					<g>
						<g>
							<g>
								<path class="st0" d="M743.5,369.6c0-0.8-0.5-1.3-1.3-1.3h-9.1v2.6h9.1C743.1,370.9,743.5,370.4,743.5,369.6z"/>
								<path class="st0" d="M743.5,361.5c0-0.8-0.5-1.3-1.3-1.3h-9.1v2.6h9.1C743.1,362.8,743.5,362.3,743.5,361.5z"/>
							</g>
							<g>
								<path class="st0" d="M609.6,369.7c0.8,0.8,2.1,1.1,3.8,1.1h39.4c-0.3-0.4-0.5-0.8-0.8-1.1H609.6z"/>
								<path class="st0" d="M665.4,362.8c0.8,0,1.3-0.5,1.3-1.3s-0.5-1.3-1.3-1.3h-17.7c0.2,0.9,0.5,1.7,0.8,2.6H665.4z"/>
								<path class="st0" d="M614.3,260.2H613c-1.6,0-2.1,0.5-2.1,2.1v48.1h5.5v-48.1C616.4,260.7,615.9,260.2,614.3,260.2z"/>
								<rect x="616.4" y="310.4" class="st0" width="1.5" height="8.1"/>
								<rect x="608.3" y="310.4" class="st0" width="2.6" height="8.1"/>
								<path class="st0" d="M665.4,368.3h-14.3c0.3,0.5,0.7,1,1,1.5h14.6c0-0.1,0-0.1,0-0.2C666.7,368.8,666.2,368.3,665.4,368.3z"
									/>
								<path class="st0" d="M619.9,362.8c-2.6,0-3.6-1.1-3.6-3.6v-40.7h-5.5v47.2c0,1.9,0.6,2.6,2.6,2.6h37.6
									c-1.1-1.7-2-3.6-2.6-5.5H619.9z"/>
							</g>
							<g>
								<path class="st0" d="M359.8,262.8v42.6h2.1v-47.1C360.5,259,359.8,260.5,359.8,262.8z"/>
								<path class="st0" d="M583.4,288.2c0,13.3-7.9,20.8-21.3,22.2h14.6c7.5-3.8,12.2-11,12.2-22.2c0-18.3-11.4-27.6-30.8-28v5.5
									C573.9,266.1,583.4,273.7,583.4,288.2z"/>
								<path class="st1" d="M582.4,339.5c0-13.6-9.4-20.4-24.3-20.7v41.4C573,359.8,582.4,353.1,582.4,339.5z"/>
								<path class="st2" d="M585,339.5c0,15.3-10.4,22.9-26.9,23.3v5.5c19.9-0.3,32.4-9.7,32.4-28.8c0-8.2-3.1-16.3-9.2-21h-10.1
									C579.9,321.8,585,328.7,585,339.5z"/>
								<path class="st2" d="M580.8,288.2c0-12.8-8.5-19.5-22.7-19.9v39.7C572.3,307.7,580.8,301,580.8,288.2z"/>
								<path class="st0" d="M557,268.3c0.4,0,0.7,0,1.1,0v-2.6c-0.4,0-0.7,0-1.1,0h-9.5v2.6H557z"/>
								<path class="st0" d="M545.9,316.2H545c-1.6,0-2.1-0.5-2.1-2.1v-1.3c0-1.6,0.5-2.1,2.1-2.1l0.9,0V316.2z"/>
								<path class="st0" d="M547.5,308.1v2.3h10.6v-2.3c-0.4,0-0.7,0-1.1,0H547.5z"/>
								<path class="st2" d="M535.8,268.3c-0.6,0-1,0.3-1,1v41.1h5.9c0.6-1.6,1.9-2.3,4.3-2.3h0.9v-39.8H535.8z"/>
								<path class="st0" d="M526.8,366.2c0,1.6,0.5,2.1,2.1,2.1h1.3c1.6,0,2.1-0.5,2.1-2.1v-47.7h-5.5V366.2z"/>
								<path class="st0" d="M547.5,360.2v2.6h9.5c0.4,0,0.7,0,1.1,0v-2.6c-0.4,0-0.7,0-1.1,0H547.5z"/>
								<rect x="547.2" y="318.8" class="st3" width="0.3" height="41.4"/>
								<path class="st3" d="M547.5,318.5v0.3h9.5c0.4,0,0.7,0,1.1,0v-0.3"/>
								<rect x="532.3" y="310.4" class="st0" width="2.6" height="8.1"/>
								<rect x="524.2" y="310.4" class="st0" width="2.6" height="8.1"/>
								<path class="st0" d="M547.5,368.3v1.5h10.6v-1.5c-0.4,0-0.7,0-1.1,0H547.5z"/>
								<path class="st0" d="M489.9,336.2H481l-1.4,2.6h10.3c1,0,1.5,0.3,1.9,0.9h2.8C493.6,336.7,492.6,336.2,489.9,336.2z"/>
								<path class="st0" d="M538.9,369.6c0-0.8,0.5-1.3,1.3-1.3h7.4v-5.5h-0.3v-2.6h-1.3v2.6h-5.7c-0.8,0-1.3-0.5-1.3-1.3
									s0.5-1.3,1.3-1.3h5.7v-41.4H545c-0.9,0-1.6-0.1-2.2-0.3h-8v47.7c0,3-1.1,4.3-3.5,4.6h8.4
									C539.2,370.6,538.9,370.2,538.9,369.6z"/>
								<path class="st0" d="M494.9,340.5l7.9,26c0.3,1.3,1,1.8,2.1,1.8h2.1c1.3,0,1.6-0.8,1.3-1.9l-8.1-26.6h-5.5
									C494.7,339.9,494.8,340.2,494.9,340.5z"/>
							</g>
							<g>
								<path class="st0" d="M738.8,260.2c1.6,0,2.1,0.5,2.1,2.1v1.3c0,1.6-0.5,2.1-2.1,2.1h-5.7v2.6h5.7c3.4,0,4.7-1.5,4.7-4.7
									v-1.3c0-3.2-1.3-4.7-4.7-4.7h-5.7v2.6H738.8z"/>
								<rect x="697.5" y="248.3" class="st0" width="35.7" height="4.3"/>
								<rect x="698.9" y="260.2" class="st0" width="35.7" height="5.5"/>
							</g>
							<g>
								<rect x="20.3" y="248" class="st0" width="18.7" height="2"/>
								<rect x="345.5" y="305.4" class="st0" width="14.3" height="4.8"/>
								<path class="st0" d="M35,265.7c-1.6,0-2.1-0.5-2.1-2.1v-1.3c0-1.6,0.5-2.1,2.1-2.1h4.1v-2.6H35c-3.4,0-4.7,1.5-4.7,4.7v1.3
									c0,3.2,1.3,4.7,4.7,4.7h4.1v-2.6H35z"/>
								<rect x="18.4" y="250" class="st0" width="2" height="37.7"/>
								<rect x="20.3" y="287.7" class="st0" width="18.7" height="1.7"/>
								<path class="st0" d="M175.6,289.5c0-12.5-9.1-21.2-24.6-21.2h-22.5c-0.6,0-1,0.3-1,1v40.3h25.3c1.2,0,2.3,0.3,3.3,0.8
									C168.4,308.6,175.6,300.5,175.6,289.5z"/>
								<path class="st0" d="M124.9,309.6v-40.3c0-2.4,1-3.6,3.6-3.6H151c17.2,0,27.2,9.7,27.2,23.8c0,11.8-7,20.5-19.3,23
									c1.1,1.4,1.8,3.1,1.8,5c0,0.3-0.1,0.6-0.1,0.9c0.7-0.5,1.6-1,2.9-1.4c12.5-3.6,20.2-13.6,20.2-27.5
									c0-17.5-12.1-29.3-32.7-29.3h-29c-1.9,0-2.6,0.6-2.6,2.6v24.9h3.7v1.7h-3.7v20.7c0.9-0.3,1.8-0.5,2.7-0.5H124.9z"/>
								<path class="st0" d="M155.2,324.9l21,41.3c0.8,1.6,1.6,2.1,3.2,2.1h1.6c1.3,0,1.6-0.8,1-2.1l-21.8-42.7
									c-0.4-0.7-0.6-1.4-0.7-2C158.5,323,157,324.3,155.2,324.9z"/>
								<path class="st0" d="M159.5,321.5c0.6-0.9,0.9-2,1.1-3.1C159.5,319.2,159.2,320.2,159.5,321.5z"/>
								<path class="st0" d="M151,310.7h-18.1c-0.8,0-1.3,0.5-1.3,1.3c0,0.8,0.5,1.3,1.3,1.3H151c2.8,0,5.4-0.3,7.8-0.8
									c-0.7-0.9-1.7-1.7-2.7-2.2C154.4,310.6,152.8,310.7,151,310.7z"/>
								<path class="st0" d="M155.2,324.9l-1.2-2.4c-1.5-2.9-3.2-3.7-6-3.7h-15.2c-0.8,0-1.3,0.5-1.3,1.3c0,0.8,0.5,1.3,1.3,1.3H148
									c2.1,0,2.8,0.5,3.7,2.3l0.8,1.7h0.1C153.6,325.3,154.4,325.1,155.2,324.9z"/>
								<rect x="124.9" y="309.6" class="st0" width="2.6" height="15.7"/>
								<path class="st0" d="M121.5,368.3h1.3c1.6,0,2.1-0.5,2.1-2.1v-40.9h-2.8c-1,0-1.9-0.2-2.7-0.5v41.4
									C119.4,367.8,119.9,368.3,121.5,368.3z"/>
								<polygon class="st0" points="247.7,310.2 250.4,310.2 249,305.4 246.2,305.4 								"/>
								<polygon class="st0" points="238.2,279.1 238.2,305.4 246.2,305.4 								"/>
								<path class="st0" d="M252.7,326.7l-5-16.5h-9.5v18h13.1C252.6,328.2,253,327.7,252.7,326.7z"/>
								<rect x="284.9" y="305.4" class="st0" width="2.6" height="4.8"/>
								<path class="st0" d="M293,297.6c0-19.9,11-31.9,27.8-31.9h17.5c1.6,0,2.1-0.5,2.1-2.1v-1.3c0-1.6-0.5-2.1-2.1-2.1h-17.5
									c-20.2,0-33.3,14.1-33.3,37.4v7.8h5.5V297.6z"/>
								<rect x="293" y="305.4" class="st0" width="2.6" height="4.8"/>
								<path class="st0" d="M230.6,262.1l-31.9,104.2c-0.3,1.1,0,1.9,1.3,1.9h2.1c1.1,0,1.8-0.5,2.1-1.8l28.8-94.3
									c0.3-0.8,0.5-1.4,0.7-1.9v-10.1H233C231.8,260.2,231,260.7,230.6,262.1z"/>
								<rect x="233.7" y="328.2" class="st0" width="4.5" height="2.6"/>
								<rect x="233.7" y="336.2" class="st0" width="4.5" height="2.6"/>
								<path class="st0" d="M99.4,265.7c1.6,0,2.1-0.5,2.1-2.1v-1.3c0-1.6-0.5-2.1-2.1-2.1H84.8v5.5H99.4z"/>
								<polygon class="st0" points="255.9,310.2 258.7,310.2 257.2,305.4 254.5,305.4 								"/>
								<path class="st0" d="M255.1,325.6c1.1,3.7-0.6,5.2-4.5,5.2h-12.4v5.5h16.5c2.9,0,3.9,0.5,5,4.2l7.9,26
									c0.3,1.3,1,1.8,2.1,1.8h2.1c1.3,0,1.6-0.8,1.3-1.9l-17.2-56.2h-5.5L255.1,325.6z"/>
								<path class="st0" d="M238.8,272.2l10.2,33.2h5.5l-13.2-43.2c-0.5-1.5-1.3-1.9-2.4-1.9h-0.6v10.2
									C238.4,270.9,238.6,271.5,238.8,272.2z"/>
								<rect x="39.1" y="250" class="st0" width="42.2" height="7.6"/>
								<path class="st0" d="M61.8,269.3c0-0.6-0.3-1-1-1H39.1v19.4h22.7V269.3z"/>
								<rect x="81.3" y="265.7" class="st0" width="3.5" height="2.6"/>
								<path class="st0" d="M73.5,268.3c-0.6,0-1,0.3-1,1v18.4h8.8v-19.4H73.5z"/>
								<rect x="69.9" y="287.7" class="st0" width="2.6" height="1.7"/>
								<rect x="81.3" y="257.6" class="st0" width="3.5" height="2.6"/>
								<rect x="61.8" y="287.7" class="st0" width="2.6" height="1.7"/>
								<path class="st0" d="M39.1,265.7h21.8c2.6,0,3.6,1.1,3.6,3.6v18.4h5.5v-18.4c0-2.4,1-3.6,3.6-3.6h7.8v-5.5H39.1V265.7z"/>
								<rect x="236.7" y="305.4" class="st0" width="1.5" height="4.8"/>
								<rect x="81.3" y="248.2" class="st0" width="3.5" height="1.8"/>
							</g>
						</g>
						<g>
							<path class="st2" d="M349.7,291h-49.9v20.7c0,18.3,10,29.3,25.2,29.3h20.9c0.8,0,1.3,0.5,1.3,1.3s-0.5,1.3-1.3,1.3h-20.9
								c-16.8,0-27.8-12-27.8-31.9V291h-5.5v20.7c0,23.3,13.1,37.4,33.3,37.4h20.9c0.8,0,1.3,0.5,1.3,1.3c0,0.8-0.5,1.3-1.3,1.3
								h-20.9c-21.8,0-35.9-15-35.9-40V291h-26.2l17,55.4c1.1,3.9-0.8,5.3-3.9,5.3h-1.5c-2.9,0-4.4-0.8-5.3-3.9l-7.9-26.2
								c-0.5-1.5-1-1.9-2.4-1.9h-16.5v7.6h-4.5v-7.6h-12.5c-0.8,0-1.3-0.5-1.3-1.3c0-0.8,0.5-1.3,1.3-1.3h12.5v-5.5H228
								c-0.8,0-1.3-0.5-1.3-1.3c0-0.8,0.5-1.3,1.3-1.3h9.9v-49.3L211,347.9c-1,3.1-2.4,3.9-5.3,3.9h-1.5c-3.1,0-5-1.5-3.9-5.3
								l31.7-103.2c1.1-3.5,2.2-4.6,5.9-4.7v-7.6H89v7.6h14.6c3.4,0,4.7,1.5,4.7,4.7v1.3c0,3.2-1.3,4.7-4.7,4.7H89v19.4h32.1v-24.9
								c0-3.6,1.5-5.2,5.2-5.2h29c22.2,0,35.3,12.8,35.3,31.9c0,15-8.4,26.5-23,30.3c-1.3,0.3-1.5,1.3-0.8,2.4l21.7,42.6
								c1.8,3.6,0.6,6.1-3.4,6.1h-1c-3.1,0-4.5-1-6.1-4l-21-41.5h-25.1v40.9c0,3.4-1.5,4.7-4.7,4.7h-1.3c-3.2,0-4.7-1.3-4.7-4.7v-43
								c0.7,0.7,1.6,1.2,2.6,1.6V291c-1,0.4-1.8,0.9-2.6,1.6v-22.3H89v-1.7h-3.5v1.7h-8.8v80.2c0,0.8-0.5,1.3-1.3,1.3
								c-0.8,0-1.3-0.5-1.3-1.3v-80.2h-5.5v79.5h0v2H43.3v18.1h40.5v-91.7h31.2v91.7l234.6,0.5V291z"/>
						</g>
					</g>
					<g>
						<path class="st4" d="M731.6,314.1v-1.3c0-1.6-0.5-2.1-2.1-2.1H700v5.5h29.5C731.1,316.2,731.6,315.7,731.6,314.1z"/>
						<path class="st4" d="M684.5,324.8c-0.9-0.2-1.7-0.4-2.6-0.5l-7.9,12.8h2.6L684.5,324.8z"/>
						<rect x="670.4" y="337.2" class="st4" width="3.6" height="5.4"/>
						<rect x="676.6" y="337.2" class="st4" width="5.5" height="5.4"/>
						<path class="st4" d="M690,326.6l-7.9,10.5h2.6l7.9-9.2C691.7,327.5,690.9,327,690,326.6z"/>
						<path class="st4" d="M694.7,318.8c-1.6,0-2.1,0.5-2.1,2.1v7c1.7,0.9,3.2,2,4.7,3.2v-12.3H694.7z"/>
						<path class="st4" d="M684.7,358.9v-16.3h-2.6v16.3c0,2.4,1,3.6,3.6,3.6h3.7v-2.6h-3.7C685,359.9,684.7,359.5,684.7,358.9z"/>
						<path class="st4" d="M693.5,268.3c-0.6,0-1,0.3-1,1V306c0,1.6,0.5,2.1,2.1,2.1h2.5v-39.8H693.5z"/>
						<path class="st4" d="M690,320.9c0-3.2,1.3-4.7,4.7-4.7h2.5v-5.5h-2.5c-3.4,0-4.7-1.5-4.7-4.7v-36.7c0-2.4,1-3.6,3.6-3.6h3.7
							v-5.5h-10.2c-1.9,0-2.6,0.6-2.6,2.6v62c1.9,0.4,3.7,1,5.5,1.8V320.9z"/>
						<path class="st4" d="M674,365.4c0,1.9,0.4,3.2,1.4,4.1h14v-1.5h-10.2c-1.9,0-2.6-0.6-2.6-2.6v-22.8H674V365.4z"/>
					</g>
					<g>
						<path class="st4" d="M409,309.9c-0.7-1.2-2-1.8-4.1-1.8h-32.4c-1.6,0-2.1-0.5-2.1-2.1v-0.6h-2.6v0.6c0,2.1,0.6,3.5,2,4.2H409
							V309.9z"/>
						<path class="st4" d="M371.5,265.7h45.3c1.6,0,2.1-0.5,2.1-2.1v-1.3c0-1.6-0.5-2.1-2.1-2.1H365c-1.9,0-2.6,0.6-2.6,2.6v42.6
							h5.5v-36.1C367.9,266.8,368.9,265.7,371.5,265.7z"/>
					</g>
					<path class="st0" d="M526.8,262.8v47.6h5.5v-41.1c0-2.4,1-3.6,3.6-3.6h10.1v-5.5h-16.6C527.4,260.2,526.8,260.9,526.8,262.8z"
						/>
				</g>
				<g>
					<path class="st4" d="M359.8,365.7c0,2.3,0.7,3.8,2.1,4.6v-60.1h-2.1V365.7z"/>
					<path class="st4" d="M363.3,368v2.2h3.3v-1.9H365C364.2,368.3,363.7,368.2,363.3,368z"/>
				</g>
				<g>
					<rect x="361.9" y="250" class="st4" width="59.6" height="2.2"/>
					<rect x="359.6" y="252.2" class="st4" width="2.3" height="4.4"/>
					<rect x="421.5" y="252.2" class="st4" width="6.7" height="4.4"/>
				</g>
				<g>
					<path class="st4" d="M371.9,358.6v-37.5h52.6v-1.8h-10.6v-16.2h-41.2v-31.6h48.9v-15h-59.6v1.6c0.8-0.4,1.8-0.6,3-0.6h51.8
						c3.4,0,4.7,1.5,4.7,4.7v1.3c0,3.2-1.3,4.7-4.7,4.7h-45.3c-0.6,0-1,0.3-1,1v36.1H409v4.5c0.4,0.7,0.6,1.7,0.6,2.9v1.3
						c0,3.2-1.3,4.7-4.7,4.7h-32.4c-1.6,0-2.1,0.5-2.1,2.1v38.3c0,0.6,0.3,1,1,1h48.7c0.8,0,1.3,0.5,1.3,1.3c0,0.8-0.5,1.3-1.3,1.3
						h-48.7c-2.6,0-3.6-1.1-3.6-3.6v-38.3c0-3.2,1.3-4.7,4.7-4.7h32.4c1.6,0,2.1-0.5,2.1-2.1v-1.3c0-1.6-0.5-2.1-2.1-2.1h-32.4
						c-1.1,0-2-0.2-2.7-0.5h-7.5v55.5c0,1.2,0.2,1.9,0.9,2.3v-54.3h3.3v54.6h52.9v0h2v2.5h0.6v-12.2H371.9z"/>
					<rect x="422.2" y="352.7" class="st4" width="5.9" height="5.9"/>
				</g>
				<g>
					<path class="st4" d="M504.3,370.8c-2.1-0.2-3.3-1.2-4.1-3.8l-7.9-26.2c-0.2-0.5-0.3-0.8-0.5-1.1h-5.6v4.1h6.7v27H504.3z"/>
					<polyline class="st4" points="481,336.2 467.6,336.2 467.6,338.8 479.6,338.8 479.1,339.7 486.2,339.7 486.2,326.4
						485.3,328.2 467.6,328.2 467.6,330.7 483.9,330.7 					"/>
				</g>
				<g>
					<path class="st4" d="M489,321.1l-1.8,3.3l0.7,2.3c0.3,1-0.2,1.5-1.5,1.5h-1.2l-1.4,2.6h1.9c3.9,0,5.7-1.5,4.5-5.2L489,321.1z"
						/>
					<path class="st4" d="M476.5,262.1c-0.5-1.5-1.3-1.9-2.4-1.9h-5.8c-1.1,0-1.9,0.5-2.4,1.9l-31.9,104.2c-0.3,1.1,0,1.9,1.3,1.9
						h2.1c1.1,0,1.8-0.5,2.1-1.8l28.8-94.3c1-3.1,1.5-3.7,2.9-3.7c1.5,0,1.9,0.6,2.9,3.7l5.4,17.8h5.5L476.5,262.1z"/>
					<polygon class="st4" points="487.9,321.9 487.9,317.5 479.5,290 476.7,290 486.5,321.9 					"/>
				</g>
				<path class="st5" d="M741.5,314.4"/>
				<path class="st6" d="M694.4,262.8c0.8-0.4,1.8-0.6,3-0.6h51.8c3.4,0,4.7,1.5,4.7,4.7v1.3c0,3.2-1.3,4.7-4.7,4.7h-45.3
					c-0.6,0-1,0.3-1,1v36.1"/>
				<polyline class="st6" points="705.1,307.7 705.1,276.1 754,276.1 				"/>
				<path class="st5" d="M746.3,323.9"/>
				<path class="st5" d="M704.3,363.1"/>
				<path class="st5" d="M752,372.8"/>
				<polyline class="st6" points="695.7,370.9 695.7,316.7 699,316.7 699.1,370.1 				"/>
				<path class="st6" d="M742.1,317.1c0,3.2-1.3,4.7-4.7,4.7H705c-1.6,0-2.1,0.5-2.1,2.1v38.3c0,0.6,0.3,1,1,1h48.7
					c0.8,0,1.3,0.5,1.3,1.3c0,0.8-0.5,1.3-1.3,1.3h-48.7c-2.6,0-3.6-1.1-3.6-3.6v-38.3c0-3.2,1.3-4.7,4.7-4.7h32.4
					c1.6,0,2.1-0.5,2.1-2.1v-1.3c0-1.6-0.5-2.1-2.1-2.1H705c-1.1,0-2-0.2-2.7-0.5h-7.5"/>
				<g>
					<path class="st7" d="M485.9,318.1h-28.9c-0.9,0-1.4-0.5-1.4-1.4s0.5-1.4,1.4-1.4h29.6c1.4,0,1.9-0.5,1.6-1.6l-17.6-57.3
						c-0.2-0.7-0.9-0.7-1,0l-30.8,100.4c-1,3.3-2.6,4.2-5.7,4.2h-1.6c-3.3,0-5.4-1.6-4.2-5.7l34.1-110.4c1.2-3.8,2.4-5,6.6-5h4.2
						c4.2,0,5.4,1.2,6.6,5l34.1,110.4c1.2,4.2-0.9,5.7-4.2,5.7h-1.6c-3.1,0-4.7-0.9-5.7-4.2l-8.5-28c-0.5-1.6-1-2.1-2.6-2.1h-36
						c-0.9,0-1.4-0.5-1.4-1.4s0.5-1.4,1.4-1.4h36"/>
				</g>
				<rect x="235.7" y="253.5" class="st0" width="4.7" height="5.1"/>
				<rect x="465.6" y="298.8" class="st0" width="10.3" height="16.7"/>
			</g>
			<g>
				<rect x="547.5" y="251.6" class="st0" width="10.6" height="2.5"/>
				<path class="st0" d="M547.5,260.2h9.5c0.4,0,0.7,0,1.1,0v-2.4h-10.6V260.2z"/>
				<polygon class="st0" points="547.2,257.6 547.2,254.5 547.5,254.5 547.5,254.1 543.5,254.1 543.5,257.8 547.5,257.8
					547.5,257.6 				"/>
			</g>
			<path class="st3" d="M672.2,227.4v90.9h-29v-67.5l-8.6-4.2l4.6-9.4h-48.6v-9.9h-81.8v25.4c0,1.7-1.4,3.1-3.1,3.1
				c-1.7,0-3.1-1.4-3.1-3.1v-25.4H350v143h419v-143H672.2z"/>
		</g>
		<rect x="698.9" y="366.7" class="st0" width="60.4" height="3.9"/>
		<rect x="704.5" y="324.5" class="st0" width="35.8" height="2.3"/>
		<rect x="703.9" y="328.9" class="st0" width="6.2" height="33"/>
		<rect x="699.4" y="269.2" class="st0" width="1.8" height="33"/>
	</g>
	<rect x="42.7" y="357.1" class="st0" width="40.8" height="3.7"/>
</g>
</svg>
